<svg xmlns="http://www.w3.org/2000/svg" xmlns:xlink="http://www.w3.org/1999/xlink" width="40.064" height="31.479" viewBox="0 0 40.064 31.479"><defs><linearGradient id="a" x1="0.5" x2="0.5" y2="1" gradientUnits="objectBoundingBox"><stop offset="0" stop-color="#a12070"/><stop offset="1" stop-color="#1e6eb4"/></linearGradient></defs><g transform="translate(-2.25 -5.625)"><path d="M27.308,10.083,25.242,12.14a7.276,7.276,0,0,1,0,10.3l2.066,2.066a10.2,10.2,0,0,0,0-14.425Z" transform="translate(6.251 1.212)" fill="url(#a)"/><path d="M30.542,6.961l-2.03,2.03a12.954,12.954,0,0,1,0,18.3l2.03,2.03a15.8,15.8,0,0,0,0-22.357Z" transform="translate(7.14 0.363)" fill="url(#a)"/><path d="M28.006,14.935V5.625H25.144l-8.585,7.154H5.112L2.25,14.21V24.226l2.862,1.431L12.266,37.1h4.293L13.876,25.657h2.683l8.585,5.723h2.862v-9.31A3.388,3.388,0,0,0,30.867,18.5,3.388,3.388,0,0,0,28.006,14.935Z" transform="translate(0 0)" fill="url(#a)"/></g></svg>